<svg width="583" height="361" viewBox="0 0 583 361" fill="none" xmlns="http://www.w3.org/2000/svg">
<path fill-rule="evenodd" clip-rule="evenodd" d="M70.158 201.703C56.7422 201.699 43.846 206.362 34.1745 214.715V166.351C34.1745 162.28 32.3743 158.375 29.1698 155.496C25.9653 152.617 21.6191 151 17.0872 151C12.5554 151 8.20921 152.617 5.00472 155.496C1.80024 158.375 3.82005e-07 162.28 0 166.351V299.848C0.00083946 303.625 1.55142 307.269 4.35527 310.084C7.15912 312.898 11.0194 314.685 15.1978 315.103C19.3762 315.521 23.5795 314.54 27.0037 312.349C30.4279 310.158 32.8328 306.909 33.7583 303.225C43.4729 311.794 56.5436 316.594 70.158 316.593C100.894 316.593 125.816 292.706 125.816 259.148C125.816 225.59 100.894 201.703 70.158 201.703ZM62.1329 288.684C46.1187 288.684 33.1338 276.393 33.1338 259.15C33.1338 241.906 46.1187 229.615 62.1329 229.615C78.1471 229.615 91.1249 241.909 91.1249 259.15C91.1249 276.391 78.1399 288.684 62.1329 288.684ZM196.477 201.703C180.498 201.703 167.937 207.02 159.539 216.022C158.922 212.244 156.736 208.815 153.42 206.424C150.105 204.034 145.905 202.86 141.665 203.138C137.425 203.415 133.459 205.124 130.565 207.921C127.67 210.718 126.061 214.396 126.06 218.215V300.08C126.061 304.089 127.833 307.933 130.989 310.768C134.144 313.603 138.423 315.196 142.886 315.197C147.333 315.151 151.584 313.544 154.73 310.719C157.875 307.894 159.666 304.075 159.718 300.08V271.009C159.718 241.474 171.756 231.937 196.477 231.937C200.921 231.911 205.172 230.307 208.304 227.474C211.436 224.642 213.194 220.812 213.194 216.82C213.194 212.828 211.436 208.997 208.304 206.165C205.172 203.333 200.921 201.729 196.477 201.703ZM227.787 315.198C232.319 315.198 236.665 313.582 239.87 310.704C243.076 307.825 244.877 303.921 244.878 299.85V218.448C244.878 214.377 243.078 210.473 239.873 207.594C236.669 204.715 232.323 203.098 227.791 203.098C223.259 203.098 218.913 204.715 215.708 207.594C212.504 210.473 212.958 215.273 212.958 219.345L210.704 299.848C210.703 301.864 211.145 303.86 212.003 305.722C212.862 307.584 214.12 309.277 215.707 310.702C217.293 312.127 219.176 313.258 221.249 314.029C223.322 314.801 225.544 315.198 227.787 315.198ZM310.105 316.593C323.767 316.685 337.101 312.837 348.148 305.616C350.843 303.85 352.846 301.364 353.872 298.513C354.898 295.663 354.894 292.593 353.86 289.745C352.826 286.896 350.815 284.415 348.116 282.656C345.416 280.896 342.166 279.949 338.831 279.951C335.342 279.955 331.949 280.978 329.162 282.865C323.715 286.668 317.004 288.717 310.105 288.683C294.091 288.683 281.113 276.392 281.113 259.149C281.113 241.905 294.091 229.614 310.105 229.614C317.004 229.58 323.716 231.63 329.162 235.435C330.822 236.591 332.721 237.438 334.749 237.927C336.777 238.417 338.893 238.539 340.974 238.287C343.055 238.035 345.059 237.413 346.87 236.458C348.681 235.503 350.262 234.234 351.522 232.724C352.781 231.215 353.694 229.495 354.207 227.666C354.719 225.837 354.822 223.934 354.508 222.069C354.194 220.203 353.47 218.413 352.378 216.802C351.286 215.19 349.848 213.79 348.148 212.683C337.101 205.461 323.767 201.614 310.105 201.705C274.933 201.705 246.421 225.593 246.421 259.151C246.421 292.708 274.933 316.593 310.105 316.593ZM463.571 291.766L429.849 248.966L456.228 229.08C457.921 227.812 459.318 226.257 460.341 224.503C461.363 222.749 461.991 220.831 462.186 218.859C462.382 216.887 462.143 214.9 461.482 213.011C460.821 211.122 459.752 209.369 458.336 207.852C456.919 206.336 455.184 205.085 453.228 204.172C451.273 203.259 449.136 202.702 446.94 202.532C444.744 202.363 442.533 202.584 440.433 203.184C438.333 203.784 436.385 204.75 434.701 206.027L389.056 241.02V166.352C389.056 162.281 387.256 158.376 384.051 155.497C380.847 152.619 376.5 151.001 371.969 151.001C367.437 151.001 363.091 152.619 359.886 155.497C356.682 158.376 354.881 162.281 354.881 166.352V299.848C354.881 303.92 356.682 307.824 359.886 310.703C363.091 313.582 367.437 315.199 371.969 315.199C376.5 315.199 380.847 313.582 384.051 310.703C387.256 307.824 389.056 303.92 389.056 299.848V279.719L404.352 268.186L436.503 310.484C439.044 313.708 442.907 315.894 447.242 316.56C451.577 317.226 456.028 316.318 459.618 314.035C463.207 311.752 465.64 308.282 466.382 304.387C467.123 300.493 466.112 294.993 463.571 291.768V291.766Z" fill="#6D28D9"/>
<path d="M357.039 352.402C357.039 354.095 356.616 355.54 355.77 356.738C354.936 357.923 353.764 358.828 352.254 359.453C350.743 360.078 348.966 360.391 346.922 360.391C345.841 360.391 344.819 360.339 343.855 360.234C342.892 360.13 342.007 359.98 341.199 359.785C340.392 359.59 339.682 359.349 339.07 359.062V355.879C340.047 356.283 341.238 356.66 342.645 357.012C344.051 357.35 345.522 357.52 347.059 357.52C348.491 357.52 349.702 357.331 350.691 356.953C351.681 356.562 352.43 356.009 352.938 355.293C353.458 354.564 353.719 353.691 353.719 352.676C353.719 351.699 353.504 350.885 353.074 350.234C352.645 349.57 351.928 348.971 350.926 348.438C349.936 347.891 348.582 347.311 346.863 346.699C345.652 346.27 344.585 345.801 343.66 345.293C342.736 344.772 341.961 344.186 341.336 343.535C340.711 342.884 340.236 342.129 339.91 341.27C339.598 340.41 339.441 339.427 339.441 338.32C339.441 336.797 339.826 335.495 340.594 334.414C341.375 333.32 342.449 332.487 343.816 331.914C345.197 331.328 346.779 331.035 348.562 331.035C350.086 331.035 351.492 331.178 352.781 331.465C354.083 331.751 355.275 332.135 356.355 332.617L355.32 335.469C354.292 335.039 353.198 334.681 352.039 334.395C350.893 334.108 349.708 333.965 348.484 333.965C347.26 333.965 346.225 334.147 345.379 334.512C344.546 334.863 343.908 335.365 343.465 336.016C343.022 336.667 342.801 337.441 342.801 338.34C342.801 339.342 343.009 340.176 343.426 340.84C343.855 341.504 344.533 342.096 345.457 342.617C346.395 343.125 347.632 343.659 349.168 344.219C350.848 344.831 352.273 345.482 353.445 346.172C354.617 346.849 355.509 347.682 356.121 348.672C356.733 349.648 357.039 350.892 357.039 352.402ZM362.879 360V331.445H366.199V357.031H378.875V360H362.879ZM383.777 360V331.445H387.098V360H383.777ZM417.625 345.449C417.625 348.665 417.039 351.354 415.867 353.516C414.695 355.664 412.996 357.285 410.77 358.379C408.556 359.46 405.867 360 402.703 360H394.949V331.445H403.562C406.466 331.445 408.966 331.979 411.062 333.047C413.159 334.102 414.773 335.671 415.906 337.754C417.052 339.824 417.625 342.389 417.625 345.449ZM414.129 345.566C414.129 343.001 413.699 340.885 412.84 339.219C411.993 337.552 410.743 336.315 409.09 335.508C407.449 334.688 405.438 334.277 403.055 334.277H398.27V357.148H402.312C406.245 357.148 409.194 356.178 411.16 354.238C413.139 352.298 414.129 349.408 414.129 345.566ZM439.871 360H423.973V331.445H439.871V334.375H427.293V343.613H439.148V346.504H427.293V357.07H439.871V360ZM453.914 331.445C456.258 331.445 458.191 331.738 459.715 332.324C461.251 332.897 462.397 333.776 463.152 334.961C463.908 336.146 464.285 337.656 464.285 339.492C464.285 341.003 464.012 342.266 463.465 343.281C462.918 344.284 462.202 345.098 461.316 345.723C460.431 346.348 459.487 346.829 458.484 347.168L466.316 360H462.449L455.457 348.086H449.52V360H446.199V331.445H453.914ZM453.719 334.316H449.52V345.273H454.051C456.382 345.273 458.094 344.798 459.188 343.848C460.294 342.897 460.848 341.497 460.848 339.648C460.848 337.708 460.262 336.335 459.09 335.527C457.931 334.72 456.141 334.316 453.719 334.316Z" fill="#79737C"/>
<circle cx="228" cy="178" r="19" fill="#6D28D9"/>
<circle cx="116.5" cy="79.5" r="79.5" fill="#6D28D9"/>
<mask id="mask0_226_2" style="mask-type:alpha" maskUnits="userSpaceOnUse" x="37" y="1" width="160" height="160">
<circle cx="116.662" cy="80.6617" r="79.6617" fill="#D33838"/>
</mask>
<g mask="url(#mask0_226_2)">
<path d="M66.1211 148.273C65.5643 148.273 65.0075 148.181 64.4506 148.012C61.7484 147.155 60.2908 144.399 61.2243 141.873C62.4198 138.597 73.3763 109.724 90.5725 106.203C95.0436 105.299 101.791 105.667 108.833 112.602C117.104 120.731 121.034 122.14 122.77 121.987C126.161 121.619 130.795 114.118 136.134 105.453C137.625 103.049 139.23 100.462 140.982 97.6907C151.349 81.417 167.006 72.3845 180.845 74.635C187.641 75.7525 199.662 80.7434 203.92 101.579C204.444 104.212 202.61 106.739 199.81 107.244C196.976 107.734 194.29 106.019 193.75 103.401C191.474 92.1794 186.249 85.3668 179.059 84.1726C169.872 82.6723 157.785 90.2351 149.875 102.651C148.139 105.361 146.567 107.917 145.109 110.29C137.543 122.538 132.531 130.636 123.999 131.585C117.481 132.305 110.962 128.723 101.365 119.262C96.8287 114.807 93.7989 115.419 92.8162 115.649C84.1035 117.424 74.8339 134.586 71.0343 144.996C70.281 147.002 68.2666 148.273 66.1211 148.273Z" fill="white"/>
</g>
<path d="M91.61 66.27C91.61 74.207 84.6498 81.04 75.555 81.04C66.4602 81.04 59.5 74.207 59.5 66.27C59.5 58.333 66.4602 51.5 75.555 51.5C84.6498 51.5 91.61 58.333 91.61 66.27Z" stroke="#FFFDFD" stroke-width="7"/>
</svg>
