<svg width="22" height="37" viewBox="0 0 22 37" fill="none" xmlns="http://www.w3.org/2000/svg">
<path d="M16.9533 36.2678L0.535909 19.8668C0.341044 19.6715 0.20269 19.46 0.120847 19.2322C0.0390034 19.0044 -0.00126865 18.7603 3.04477e-05 18.5C3.04477e-05 18.2397 0.040952 17.9956 0.122795 17.7678C0.204638 17.54 0.342343 17.3285 0.535909 17.1332L16.9533 0.683377C17.408 0.227792 17.9763 0 18.6583 0C19.3404 0 19.925 0.244063 20.4121 0.73219C20.8993 1.22032 21.1429 1.7898 21.1429 2.44063C21.1429 3.09147 20.8993 3.66095 20.4121 4.14908L6.08955 18.5L20.4121 32.8509C20.8668 33.3065 21.0941 33.8682 21.0941 34.5359C21.0941 35.2037 20.8506 35.781 20.3634 36.2678C19.8762 36.7559 19.3079 37 18.6583 37C18.0088 37 17.4404 36.7559 16.9533 36.2678Z" fill="white"/>
</svg>
